<svg width="24" height="24" viewBox="0 0 24 24" fill="none" xmlns="http://www.w3.org/2000/svg">
<g clip-path="url(#clip0_2828_62)">
<path fill-rule="evenodd" clip-rule="evenodd" d="M17 5H5V20H17V5ZM14 7C14.2652 7 14.5196 7.10536 14.7071 7.29289C14.8946 7.48043 15 7.73478 15 8C15 8.26522 14.8946 8.51957 14.7071 8.70711C14.5196 8.89464 14.2652 9 14 9H9C8.73478 9 8.48043 8.89464 8.29289 8.70711C8.10536 8.51957 8 8.26522 8 8C8 7.73478 8.10536 7.48043 8.29289 7.29289C8.48043 7.10536 8.73478 7 9 7H14ZM12 12C12.2549 12.0003 12.5 12.0979 12.6854 12.2728C12.8707 12.4478 12.9822 12.687 12.9972 12.9414C13.0121 13.1958 12.9293 13.4464 12.7657 13.6418C12.6021 13.8373 12.3701 13.9629 12.117 13.993L12 14H9C8.74512 13.9997 8.49997 13.9021 8.31463 13.7272C8.1293 13.5522 8.01777 13.313 8.00283 13.0586C7.98789 12.8042 8.07067 12.5536 8.23427 12.3582C8.39786 12.1627 8.6299 12.0371 8.883 12.007L9 12H12Z" fill="#1D1D1B"/>
<path d="M16.3158 3.16669C16.7938 3.16654 17.2542 3.34707 17.6047 3.67211C17.9552 3.99714 18.1699 4.44265 18.2058 4.91932L18.2105 5.06142V9.79827H19.6316C19.9848 9.79828 20.3254 9.92987 20.5869 10.1674C20.8484 10.4049 21.0121 10.7313 21.046 11.0829L21.0526 11.2193V18.3246C21.0527 19.0495 20.7757 19.7471 20.2784 20.2745C19.781 20.802 19.101 21.1194 18.3773 21.162L18.2105 21.1667H5.89474C5.41672 21.1668 4.95631 20.9863 4.6058 20.6613C4.25529 20.3362 4.04059 19.8907 4.00474 19.4141L4 19.2719V5.06142C3.99985 4.5834 4.18039 4.12299 4.50542 3.77248C4.83045 3.42198 5.27596 3.20728 5.75263 3.17142L5.89474 3.16669H16.3158ZM19.1579 11.693H18.2105V19.2719C18.4618 19.2719 18.7028 19.1721 18.8804 18.9945C19.0581 18.8168 19.1579 18.5758 19.1579 18.3246V11.693ZM16.3158 5.06142H5.89474V19.2719H16.3158V5.06142Z" fill="#1D1D1B"/>
</g>
<defs>
<clipPath id="clip0_2828_62">
<rect width="24" height="24" fill="white"/>
</clipPath>
</defs>
</svg>
