<svg width="24" height="24" viewBox="0 0 24 24" fill="none" xmlns="http://www.w3.org/2000/svg">
<g clip-path="url(#clip0_2828_61)">
<path d="M16.3158 3.16669C16.7938 3.16654 17.2542 3.34707 17.6047 3.67211C17.9552 3.99714 18.1699 4.44265 18.2058 4.91932L18.2105 5.06142V9.79827H19.6316C19.9848 9.79828 20.3254 9.92987 20.5869 10.1674C20.8484 10.4049 21.0121 10.7313 21.046 11.0829L21.0526 11.2193V18.3246C21.0527 19.0495 20.7757 19.7471 20.2784 20.2745C19.781 20.802 19.101 21.1194 18.3773 21.162L18.2105 21.1667H5.89474C5.41672 21.1668 4.95631 20.9863 4.6058 20.6613C4.25529 20.3362 4.04059 19.8907 4.00474 19.4141L4 19.272V5.06142C3.99985 4.5834 4.18039 4.12299 4.50542 3.77248C4.83045 3.42198 5.27596 3.20728 5.75263 3.17142L5.89474 3.16669H16.3158ZM19.1579 11.693H18.2105V19.272C18.4618 19.272 18.7028 19.1721 18.8804 18.9945C19.0581 18.8168 19.1579 18.5758 19.1579 18.3246V11.693ZM16.3158 5.06142H5.89474V19.272H16.3158V5.06142ZM11.5789 12.6404C11.8204 12.6406 12.0527 12.7331 12.2282 12.8989C12.4038 13.0646 12.5095 13.2912 12.5236 13.5322C12.5378 13.7733 12.4594 14.0106 12.3044 14.1958C12.1494 14.381 11.9296 14.5 11.6898 14.5285L11.5789 14.5351H8.73684C8.49538 14.5348 8.26313 14.4424 8.08755 14.2766C7.91196 14.1109 7.8063 13.8843 7.79215 13.6433C7.778 13.4022 7.85643 13.1649 8.01141 12.9797C8.16639 12.7945 8.38622 12.6755 8.626 12.647L8.73684 12.6404H11.5789ZM13.4737 7.90353C13.7249 7.90353 13.9659 8.00334 14.1436 8.18101C14.3212 8.35867 14.4211 8.59964 14.4211 8.8509C14.4211 9.10216 14.3212 9.34312 14.1436 9.52079C13.9659 9.69845 13.7249 9.79827 13.4737 9.79827H8.73684C8.48558 9.79827 8.24462 9.69845 8.06695 9.52079C7.88929 9.34312 7.78947 9.10216 7.78947 8.8509C7.78947 8.59964 7.88929 8.35867 8.06695 8.18101C8.24462 8.00334 8.48558 7.90353 8.73684 7.90353H13.4737Z" fill="#1D1D1B"/>
</g>
<defs>
<clipPath id="clip0_2828_61">
<rect width="24" height="24" fill="white"/>
</clipPath>
</defs>
</svg>
