<svg width="24" height="24" viewBox="0 0 24 24" fill="none" xmlns="http://www.w3.org/2000/svg">
<path d="M3 9.49316C3 13.2461 6.15527 16.9551 11.0596 20.1191C11.332 20.2949 11.666 20.4707 11.8945 20.4707C12.123 20.4707 12.457 20.2949 12.7295 20.1191C17.6426 16.9551 20.7891 13.2461 20.7891 9.49316C20.7891 6.25 18.5479 4 15.6738 4C13.9951 4 12.6855 4.76465 11.8945 5.9248C11.1211 4.77344 9.80273 4 8.12402 4C5.24121 4 3 6.25 3 9.49316ZM4.81055 9.48438C4.81055 7.26953 6.26953 5.7666 8.22949 5.7666C9.81152 5.7666 10.6992 6.72461 11.2529 7.55957C11.499 7.91992 11.666 8.03418 11.8945 8.03418C12.1318 8.03418 12.2812 7.91113 12.5361 7.55957C13.1338 6.74219 13.9863 5.7666 15.5596 5.7666C17.5283 5.7666 18.9873 7.26953 18.9873 9.48438C18.9873 12.5781 15.7705 16.0059 12.0615 18.4668C11.9824 18.5195 11.9297 18.5547 11.8945 18.5547C11.8594 18.5547 11.8066 18.5195 11.7363 18.4668C8.02734 16.0059 4.81055 12.5781 4.81055 9.48438Z" fill="#1D1D1B"/>
</svg>
