<svg width="24" height="24" viewBox="0 0 24 24" fill="none" xmlns="http://www.w3.org/2000/svg">
<mask id="path-1-inside-1_2828_60" fill="white">
<path fill-rule="evenodd" clip-rule="evenodd" d="M16.9066 2.41328C17.1105 1.86224 17.8891 1.86224 18.093 2.41328L18.7337 4.14551C18.9262 4.66492 19.3349 5.0736 19.8543 5.26607L21.5865 5.90677C22.1376 6.11065 22.1376 6.88933 21.5865 7.09322L19.8543 7.73392C19.3349 7.9264 18.9262 8.33507 18.7337 8.85448L18.093 10.5867C17.8892 11.1378 17.1105 11.1378 16.9066 10.5867L16.2659 8.85448C16.0734 8.33507 15.6647 7.92639 15.1453 7.73392L13.4131 7.09322C12.8621 6.88934 12.8621 6.11066 13.4131 5.90677L15.1453 5.26607C15.6647 5.07359 16.0734 4.66492 16.2659 4.14551L16.9066 2.41328ZM8.45302 7.72932C8.81321 6.75689 10.1877 6.75689 10.547 7.72932L11.5586 10.4625C11.8979 11.3791 12.6209 12.1021 13.5375 12.4414L16.2707 13.453C17.2431 13.8123 17.2431 15.1877 16.2707 15.547L13.5375 16.5586C12.6209 16.8979 11.8979 17.6209 11.5586 18.5375L10.547 21.2707C10.1877 22.2431 8.81321 22.2431 8.45302 21.2707L7.44137 18.5375C7.1021 17.6209 6.38 16.8979 5.4634 16.5586L2.72932 15.547C1.75689 15.1877 1.75689 13.8123 2.72932 13.453L5.4634 12.4414C6.38 12.1021 7.10212 11.38 7.44137 10.4625L8.45302 7.72932Z"/>
</mask>
<path fill-rule="evenodd" clip-rule="evenodd" d="M16.9066 2.41328C17.1105 1.86224 17.8891 1.86224 18.093 2.41328L18.7337 4.14551C18.9262 4.66492 19.3349 5.0736 19.8543 5.26607L21.5865 5.90677C22.1376 6.11065 22.1376 6.88933 21.5865 7.09322L19.8543 7.73392C19.3349 7.9264 18.9262 8.33507 18.7337 8.85448L18.093 10.5867C17.8892 11.1378 17.1105 11.1378 16.9066 10.5867L16.2659 8.85448C16.0734 8.33507 15.6647 7.92639 15.1453 7.73392L13.4131 7.09322C12.8621 6.88934 12.8621 6.11066 13.4131 5.90677L15.1453 5.26607C15.6647 5.07359 16.0734 4.66492 16.2659 4.14551L16.9066 2.41328ZM8.45302 7.72932C8.81321 6.75689 10.1877 6.75689 10.547 7.72932L11.5586 10.4625C11.8979 11.3791 12.6209 12.1021 13.5375 12.4414L16.2707 13.453C17.2431 13.8123 17.2431 15.1877 16.2707 15.547L13.5375 16.5586C12.6209 16.8979 11.8979 17.6209 11.5586 18.5375L10.547 21.2707C10.1877 22.2431 8.81321 22.2431 8.45302 21.2707L7.44137 18.5375C7.1021 17.6209 6.38 16.8979 5.4634 16.5586L2.72932 15.547C1.75689 15.1877 1.75689 13.8123 2.72932 13.453L5.4634 12.4414C6.38 12.1021 7.10212 11.38 7.44137 10.4625L8.45302 7.72932Z" fill="#1D1D1B"/>
<path d="M18.093 2.41328L19.9688 1.71948L19.9687 1.71923L18.093 2.41328ZM16.9066 2.41328L15.0309 1.71927L15.0308 1.71948L16.9066 2.41328ZM18.7337 4.14551L16.8579 4.83932L16.8584 4.84047L18.7337 4.14551ZM19.8543 5.26607L19.1594 7.14145L19.1605 7.14187L19.8543 5.26607ZM21.5865 5.90677L22.2805 4.03104L22.2803 4.03096L21.5865 5.90677ZM21.5865 7.09322L22.2803 8.96903L22.2806 8.96893L21.5865 7.09322ZM19.8543 7.73392L19.1605 5.85812L19.1593 5.85855L19.8543 7.73392ZM18.7337 8.85448L16.8584 8.15954L16.8579 8.16067L18.7337 8.85448ZM18.093 10.5867L19.9688 11.2807L19.9688 11.2805L18.093 10.5867ZM16.9066 10.5867L15.0308 11.2805L15.0309 11.2808L16.9066 10.5867ZM16.2659 8.85448L18.1417 8.16067L18.1413 8.15952L16.2659 8.85448ZM15.1453 7.73392L15.8403 5.85854L15.8391 5.85812L15.1453 7.73392ZM13.4131 7.09322L12.7191 8.96895L12.7193 8.96903L13.4131 7.09322ZM13.4131 5.90677L12.7193 4.03096L12.719 4.03106L13.4131 5.90677ZM15.1453 5.26607L15.8391 7.14187L15.8403 7.14144L15.1453 5.26607ZM16.2659 4.14551L18.1413 4.84045L18.1417 4.83932L16.2659 4.14551ZM10.547 7.72932L8.67096 8.42252L8.67134 8.42356L10.547 7.72932ZM8.45302 7.72932L6.57755 7.03463L6.57738 7.03508L8.45302 7.72932ZM11.5586 10.4625L13.4343 9.7683L13.4343 9.76827L11.5586 10.4625ZM13.5375 12.4414L14.2317 10.5657L14.2317 10.5657L13.5375 12.4414ZM16.2707 13.453L15.5764 15.3287L15.5775 15.329L16.2707 13.453ZM16.2707 15.547L15.5775 13.671L15.5764 13.6713L16.2707 15.547ZM13.5375 16.5586L14.2317 18.4343L14.2317 18.4343L13.5375 16.5586ZM11.5586 18.5375L13.4343 19.2317L13.4343 19.2317L11.5586 18.5375ZM10.547 21.2707L8.67134 20.5764L8.67096 20.5775L10.547 21.2707ZM8.45302 21.2707L6.57738 21.9649L6.57755 21.9654L8.45302 21.2707ZM7.44137 18.5375L9.31701 17.8432L9.31701 17.8432L7.44137 18.5375ZM5.4634 16.5586L6.1576 14.683L6.15744 14.6829L5.4634 16.5586ZM2.72932 15.547L3.42336 13.6713L3.42253 13.671L2.72932 15.547ZM2.72932 13.453L3.42253 15.329L3.42336 15.3287L2.72932 13.453ZM5.4634 12.4414L6.15744 14.3171L6.1576 14.317L5.4634 12.4414ZM7.44137 10.4625L5.56573 9.76827L5.5655 9.76888L7.44137 10.4625ZM19.9687 1.71923C19.1206 -0.573029 15.879 -0.573138 15.0309 1.71927L18.7823 3.1073C18.3419 4.29762 16.6577 4.29751 16.2173 3.10733L19.9687 1.71923ZM20.6095 3.45171L19.9688 1.71948L16.2172 3.10709L16.8579 4.83932L20.6095 3.45171ZM20.5492 3.39069C20.5766 3.40082 20.599 3.42325 20.6091 3.45056L16.8584 4.84047C17.2534 5.90659 18.0932 6.74638 19.1594 7.14145L20.5492 3.39069ZM22.2803 4.03096L20.5481 3.39027L19.1605 7.14187L20.8927 7.78257L22.2803 4.03096ZM22.2806 8.96893C24.5728 8.12075 24.5729 4.87923 22.2805 4.03104L20.8925 7.78249C19.7022 7.34207 19.7023 5.6579 20.8925 5.21751L22.2806 8.96893ZM20.5481 9.60973L22.2803 8.96903L20.8927 5.21742L19.1605 5.85812L20.5481 9.60973ZM20.6091 9.54941C20.599 9.57676 20.5766 9.59918 20.5493 9.6093L19.1593 5.85855C18.0932 6.25362 17.2534 7.09338 16.8584 8.15954L20.6091 9.54941ZM19.9688 11.2805L20.6095 9.54828L16.8579 8.16067L16.2172 9.8929L19.9688 11.2805ZM15.0309 11.2808C15.879 13.573 19.1206 13.5731 19.9688 11.2807L16.2173 9.8927C16.6577 8.70237 18.3419 8.70248 18.7823 9.89266L15.0309 11.2808ZM14.3901 9.54828L15.0308 11.2805L18.7824 9.89291L18.1417 8.16067L14.3901 9.54828ZM14.4504 9.60931C14.423 9.59917 14.4006 9.57674 14.3905 9.54944L18.1413 8.15952C17.7462 7.0934 16.9064 6.25361 15.8403 5.85854L14.4504 9.60931ZM12.7193 8.96903L14.4515 9.60973L15.8391 5.85812L14.1069 5.21742L12.7193 8.96903ZM12.719 4.03106C10.4268 4.87924 10.4267 8.12076 12.7191 8.96895L14.1071 5.2175C15.2974 5.65791 15.2973 7.34209 14.1071 7.78248L12.719 4.03106ZM14.4515 3.39027L12.7193 4.03096L14.1069 7.78257L15.8391 7.14187L14.4515 3.39027ZM14.3905 3.45057C14.4006 3.42323 14.4231 3.40081 14.4504 3.39069L15.8403 7.14144C16.9064 6.74637 17.7462 5.90661 18.1413 4.84045L14.3905 3.45057ZM15.0308 1.71948L14.3901 3.45171L18.1417 4.83932L18.7824 3.10708L15.0308 1.71948ZM12.423 7.03611C11.4191 4.31919 7.58161 4.3239 6.57755 7.03463L10.3285 8.424C10.0448 9.18989 8.95625 9.1946 8.67096 8.42252L12.423 7.03611ZM13.4343 9.76827L12.4226 7.03508L8.67134 8.42356L9.68299 11.1567L13.4343 9.76827ZM14.2317 10.5657C13.8624 10.429 13.571 10.1376 13.4343 9.7683L9.68298 11.1567C10.2248 12.6207 11.3793 13.7752 12.8433 14.317L14.2317 10.5657ZM16.9649 11.5774L14.2317 10.5657L12.8432 14.317L15.5764 15.3287L16.9649 11.5774ZM16.9639 17.423C19.6787 16.4198 19.6787 12.5801 16.9639 11.577L15.5775 15.329C14.8075 15.0445 14.8075 13.9555 15.5775 13.671L16.9639 17.423ZM14.2317 18.4343L16.9649 17.4226L15.5764 13.6713L12.8432 14.683L14.2317 18.4343ZM13.4343 19.2317C13.571 18.8624 13.8624 18.571 14.2317 18.4343L12.8433 14.683C11.3793 15.2248 10.2248 16.3793 9.68298 17.8433L13.4343 19.2317ZM12.4226 21.9649L13.4343 19.2317L9.68299 17.8432L8.67134 20.5764L12.4226 21.9649ZM6.57755 21.9654C7.58161 24.6761 11.4191 24.6808 12.423 21.9639L8.67096 20.5775C8.95625 19.8054 10.0448 19.8101 10.3285 20.576L6.57755 21.9654ZM5.56573 19.2317L6.57738 21.9649L10.3287 20.5764L9.31701 17.8432L5.56573 19.2317ZM4.76919 18.4343C5.13755 18.5706 5.4287 18.8615 5.56573 19.2317L9.31701 17.8432C8.77551 16.3802 7.62246 15.2251 6.1576 14.683L4.76919 18.4343ZM2.03527 17.4227L4.76935 18.4343L6.15744 14.6829L3.42336 13.6713L2.03527 17.4227ZM2.03611 11.577C-0.678702 12.5801 -0.678702 16.4198 2.03611 17.423L3.42253 13.671C4.19249 13.9555 4.19249 15.0445 3.42253 15.329L2.03611 11.577ZM4.76935 10.5656L2.03527 11.5773L3.42336 15.3287L6.15744 14.3171L4.76935 10.5656ZM5.5655 9.76888C5.42873 10.1388 5.13824 10.4291 4.76919 10.5657L6.1576 14.317C7.62176 13.7751 8.77552 12.6212 9.31724 11.1561L5.5655 9.76888ZM6.57738 7.03508L5.56573 9.76827L9.31701 11.1567L10.3287 8.42356L6.57738 7.03508Z" fill="#1D1D1B" mask="url(#path-1-inside-1_2828_60)"/>
</svg>
