<svg width="24" height="24" viewBox="0 0 24 24" fill="none" xmlns="http://www.w3.org/2000/svg">
<g clip-path="url(#clip0_2828_59)">
<path d="M18.0301 2.85913L18.0303 2.85857L18.5219 1.51489L19.0134 2.85857L19.0137 2.85914C19.3362 3.73907 20.0232 4.43609 20.901 4.76496L20.9016 4.76517L22.2648 5.27493L20.9016 5.78469L20.901 5.78491C20.0232 6.11378 19.3362 6.81077 19.0136 7.69073L19.0134 7.69129L18.5219 9.03497L18.0303 7.69129L18.0301 7.69072C17.7075 6.81079 17.0205 6.11377 16.1427 5.78491L16.1421 5.78469L14.7789 5.27493L16.1421 4.76517L16.1427 4.76495C17.0205 4.43608 17.7075 3.73909 18.0301 2.85913Z" stroke="#1D1D1B" stroke-width="2"/>
<path d="M9.30803 7.2233L9.30822 7.22381L10.4903 10.4524C10.4903 10.4524 10.4903 10.4524 10.4903 10.4524C10.986 11.8066 12.0441 12.8788 13.391 13.3828L16.5846 14.5778L16.5851 14.578C16.6654 14.608 16.7084 14.65 16.7356 14.6918C16.7664 14.7393 16.7872 14.8042 16.7872 14.878C16.7872 14.9518 16.7664 15.0167 16.7356 15.0641C16.7084 15.1059 16.6654 15.148 16.5851 15.178L16.5846 15.1782L13.391 16.3732C13.391 16.3732 13.391 16.3732 13.391 16.3732C12.0441 16.8772 10.986 17.9494 10.4903 19.3035C10.4903 19.3035 10.4903 19.3035 10.4903 19.3035L9.30822 22.5321L9.30803 22.5327C9.20861 22.8047 8.84035 22.807 8.73955 22.5319L7.55758 19.3035C7.06198 17.9499 6.0052 16.8773 4.65784 16.3732L4.65776 16.3732L1.46315 15.1781L1.46273 15.178C1.38247 15.148 1.33942 15.1059 1.31225 15.0641C1.28143 15.0167 1.26062 14.9518 1.26062 14.878C1.26062 14.8042 1.28143 14.7393 1.31225 14.6918C1.33942 14.65 1.38247 14.608 1.46273 14.578L1.46315 14.5778L4.65776 13.3828L4.65784 13.3828C6.00486 12.8787 7.062 11.8074 7.55769 10.4521L8.73955 7.22403C8.84035 6.94892 9.20861 6.95128 9.30803 7.2233ZM16.935 16.1147C18.0713 15.6903 18.0713 14.0657 16.935 13.6412V16.1147Z" stroke="#1D1D1B" stroke-width="2"/>
</g>
<defs>
<clipPath id="clip0_2828_59">
<rect width="24" height="24" fill="white"/>
</clipPath>
</defs>
</svg>
