<svg width="24" height="24" viewBox="0 0 24 24" fill="none" xmlns="http://www.w3.org/2000/svg">
<path fill-rule="evenodd" clip-rule="evenodd" d="M9.47974 18.9758C9.71696 19.5128 10.1405 19.8969 10.6682 19.9787L17.1515 20.984C18.0937 21.1301 19.0113 20.2572 19.2009 19.0342L20.7461 9.0695C20.9358 7.84653 20.3256 6.73667 19.3834 6.59056L14.2964 5.80176C14.3792 6.06372 14.4248 6.35054 14.4248 6.65118V16.735C14.4248 17.9726 13.6518 18.9758 12.6983 18.9758H9.47974Z" fill="currentColor"/>
<path d="M5.22651 4.25H11.7873C12.1565 4.25 12.7638 4.72392 12.7638 5.74084V15.8246C12.7638 16.8416 12.1565 17.3155 11.7873 17.3155H5.22651C4.85728 17.3155 4.25 16.8416 4.25 15.8246V5.74084C4.25 4.72392 4.85728 4.25 5.22651 4.25Z" fill="currentColor" stroke="currentColor" stroke-width="1.5"/>
</svg>
